<?xml version="1.0" encoding="utf-8"?>
<!-- Generator: Adobe Illustrator 25.0.0, SVG Export Plug-In . SVG Version: 6.00 Build 0)  -->
<svg version="1.1" id="Bold" xmlns="http://www.w3.org/2000/svg" xmlns:xlink="http://www.w3.org/1999/xlink" x="0px" y="0px"
	 viewBox="0 0 512 512" style="enable-background:new 0 0 512 512;" xml:space="preserve">
<path d="M391.8,486.1c-10.4-0.5-20.1-2.7-28.7-9.3c-29.1-22.6-58.4-44.9-87.6-67.4c-1.8-1.4-2.9-1.7-4.8,0.1
	c-18,16.6-35.8,33.6-54.4,49.5c-13,11.1-35.7,10-45.9-8.6c-5.2-9.5-8.3-19.8-11.4-30c-10.3-33.6-20.8-67.3-30.8-101
	c-0.6-2.5-2.1-3.6-4.5-4.4c-30.9-10.3-61.9-20.5-92.7-31.2c-30.9-8.8-44.7-49.3-13-68.2c9.3-5.8,19.6-9.2,29.5-13.4
	C184.1,144.8,320.4,86.8,457.1,30c27.2-13.3,59.5,7.9,54.3,38.8c-9.3,55-21.4,109.6-31.7,164.5C466.5,301.2,453.2,369.1,440,437
	C437.7,464.7,421.2,486.1,391.8,486.1z M200.6,419.2c0.2,0.1,0.5,0.2,0.7,0.2c21.5-19.6,43-39.2,64.4-58.8c5-4.6,5-4.6,10.2-0.6
	c36.6,28,73,56.3,109.7,84c6.3,4.8,12.4,4,13.9-5.1c23.6-123.1,48-246.1,71.9-369.1c0.2-1,0.9-2.2,0-2.9c-0.9-0.7-1.9,0.3-2.8,0.7
	C327,127.3,185.4,186.7,43.8,246.6c38,12.9,74.9,25.2,112.7,38c2.1,0.7,3.6,0.5,5.3-0.6c78.3-48.4,156.6-97,234.9-145.5
	c2.8-1.8,5.8-3.2,9.2-3.4c2.7-0.2,4.1,0.9,4.8,3.7c0.9,4-1.7,6.2-4,8.4c-62.5,58.7-125.3,117.2-188.1,175.5
	c-2.5,2.3-3.6,4.6-4.1,7.8C210,360.1,205.1,389.6,200.6,419.2z"/>
</svg>
