<?xml version="1.0" encoding="utf-8"?>
<!-- Generator: Adobe Illustrator 25.0.0, SVG Export Plug-In . SVG Version: 6.00 Build 0)  -->
<svg version="1.1" id="Layer_2" xmlns="http://www.w3.org/2000/svg" xmlns:xlink="http://www.w3.org/1999/xlink" x="0px" y="0px"
	 viewBox="0 0 512 512" style="enable-background:new 0 0 512 512;" xml:space="preserve">
<style type="text/css">
	.st0{fill-rule:evenodd;clip-rule:evenodd;}
</style>
<path class="st0" d="M383.4,314.2c1.7,10.1,0.3,20.7-3.8,30.1c-9.4,15.7-24.9,26.7-42.9,30.1c-13.2,2.4-27,1.6-39.9-2.4
	c-12.2-3.8-24.4-8.2-36.2-13.4c-43.7-22-81-54.9-108.2-95.8c-14.8-18.8-23.9-41.6-26-65.5c-0.3-20,7.7-39.2,22.1-53
	c4.4-4.9,10.5-7.7,17.1-7.8c4.2,0,8.4,0,12.2,0.2c3.7,0.2,8.9-1.6,14.1,10.8c5.4,12.7,18.1,43.9,19.7,47c1.9,3.5,2.3,7.7,0.5,11.1
	c-1.6,3.8-3.8,7.5-6.4,10.6c-3.1,3.7-6.6,8.2-9.4,11.1c-3.3,3.1-6.6,6.6-2.8,12.9c9.4,16.4,21.4,31.2,35.2,43.9
	c15.2,13.4,32.4,24,51,31.5c6.3,3.1,9.9,2.6,13.8-1.6c3.7-4.4,15.9-18.6,20-24.9c4.2-6.3,8.5-5.2,14.3-3.1
	c5.7,2.1,36.9,17.4,43.4,20.6C377.5,309.8,381.8,311.5,383.4,314.2z"/>
<path class="st0" d="M256.3,0.1C116.2,0.1,2.5,113.7,2.5,253.9c0,44.4,11.7,88.1,33.8,126.7L0.4,512.1l134.5-35.4
	c37.3,20.4,78.9,31,121.2,31h0.2c140.1,0,253.8-113.6,253.8-253.8C510.1,113.9,396.5,0.1,256.3,0.1z M368.3,432.7
	c-33.6,21.1-72.5,32.2-112,32.2c-37.8,0-74.9-10.1-107.5-29.4l-7.7-4.5l-80,20.9L82.6,374l-5.1-8c-61.8-98.6-32.1-228.7,66.5-290.8
	C242.9,13.4,373,43.2,435,141.9C496.9,240.5,467.1,370.8,368.3,432.7z"/>
</svg>
